{
  "asset": {
    "generator": "Khronos glTF Blender I/O v1.1.46",
    "version": "2.0"
  },
  "scene": 0,
  "scenes": [
    {
      "name": "Scene",
      "nodes": [
        0
      ]
    }
  ],
  "nodes": [
    {
      "mesh": 0,
      "name": "Suzanne"
    }
  ],
  "meshes": [
    {
      "name": "Suzanne.001",
      "primitives": [
        {
          "attributes": {
            "POSITION": 0,
            "NORMAL": 1
          },
          "indices": 2
        }
      ]
    }
  ],
  "accessors": [
    {
      "bufferView": 0,
      "componentType": 5126,
      "count": 47232,
      "max": [
        1.328185796737671,
        0.7782661318778992,
        0.9392361640930176
      ],
      "min": [
        -1.328185796737671,
        -0.8224414587020874,
        -0.971822202205658
      ],
      "type": "VEC3"
    },
    {
      "bufferView": 1,
      "componentType": 5126,
      "count": 47232,
      "type": "VEC3"
    },
    {
      "bufferView": 2,
      "componentType": 5123,
      "count": 47232,
      "type": "SCALAR"
    }
  ],
  "bufferViews": [
    {
      "buffer": 0,
      "byteLength": 566784,
      "byteOffset": 0
    },
    {
      "buffer": 0,
      "byteLength": 566784,
      "byteOffset": 566784
    },
    {
      "buffer": 0,
      "byteLength": 94464,
      "byteOffset": 1133568
    }
  ],
  "buffers": [
    {
      "uri": "suzanne_data.bin",
      "byteLength": 1228032
    }
  ]
}